<?xml version="1.0" encoding="UTF-8"?>
<svg id="b" data-name="Layer 2" xmlns="http://www.w3.org/2000/svg" viewBox="0 0 1181.2 415.05">
  <defs>
    <style>
      .d {
        fill: #094937;
      }
    </style>
  </defs>
  <g id="c" data-name="Layer 1">
    <g>
      <path class="d" d="M408.6,361.37c10.32,0,18.81,3.73,24.19,12.08l-4.25,3.58c-3.9-6.49-9.62-10.81-19.42-10.81-12.48,0-21.67,8.05-21.67,22.07s10.32,21.85,21.67,21.85c9.45,0,15.35-3.8,19.51-10.89l4.25,2.54c-5.46,9.1-13.78,13.27-24.53,13.27-16.82,0-30.6-10.59-30.6-26.47s13.7-27.21,30.86-27.21Z"/>
      <path class="d" d="M471.53,362.12h8.5v47.72h31.9v4.47h-40.4v-52.19Z"/>
      <path class="d" d="M560.65,414.31h-8.5v-52.19h8.5v52.19Z"/>
      <path class="d" d="M649.5,362.12h6.07v52.42h-3.38l-40.66-43.47v43.25h-6.07v-52.19h8.06l35.98,38.55v-38.55Z"/>
      <path class="d" d="M708.8,414.31h-8.5v-52.19h8.5v52.19Z"/>
      <path class="d" d="M779.19,361.37c10.32,0,18.81,3.73,24.19,12.08l-4.25,3.58c-3.9-6.49-9.62-10.81-19.42-10.81-12.48,0-21.67,8.05-21.67,22.07s10.32,21.85,21.67,21.85c9.45,0,15.35-3.8,19.51-10.89l4.25,2.54c-5.46,9.1-13.78,13.27-24.53,13.27-16.82,0-30.6-10.59-30.6-26.47s13.7-27.21,30.86-27.21Z"/>
      <path class="d" d="M0,251.32v-.77c3.87-1.93,6.18-5.8,6.18-10.44V11.21C6.18,6.57,3.87,2.71,0,.77v-.77h85.84c45.24,0,83.9,10.05,83.52,49.49-.77,52.97-71.14,57.22-71.14,101.3,0,35.57,31.32,66.5,83.52,100.53h-79.26c-28.23-30.16-27.45-71.14-10.05-109.81,18.17-40.6,22.81-57.61,24.36-87.77,1.93-36.73-19.72-49.49-53.74-49.49h-3.48v235.85c0,4.64,2.32,8.5,6.19,10.44v.77H0Z"/>
      <path class="d" d="M308.54,187.91c-8.5,40.98-29,65.73-67.66,65.73-49.49,0-84.29-39.44-84.29-100.53s44.08-97.43,85.06-97.43,62.64,18.56,62.64,54.52h-99.75c-.39,4.25-.39,8.89-.39,13.53,0,55.29,28.23,83.13,58.77,83.13,17.79,0,36.73-8.51,45.24-19.33l.39.39ZM204.92,106.33h25.13c15.08,0,27.07-5.03,27.07-21.27,0-13.53-6.57-25.52-19.72-25.52-18.17,0-29.39,18.17-32.48,46.78Z"/>
      <path class="d" d="M320.53,242.81l-2.32-55.29h.77c20.11,34.8,52.2,59.16,75.01,60.7,18.56,1.55,29.77-8.89,28.61-24.36-1.55-14.69-19.33-28.61-40.21-42.14-39.83-24.75-63.41-40.6-63.41-73.08,0-36.73,31.32-54.13,69.98-52.97,22.04.77,40.98,3.48,50.26,6.96l2.71,49.88h-.77c-13.53-27.45-40.21-48.72-61.48-51.04-16.24-2.32-25.91,4.25-26.68,17.79-.39,15.85,13.53,28.23,48.33,49.49,35.57,20.88,55.29,39.44,54.13,72.69-1.16,38.67-32.09,52.2-64.18,52.2s-57.22-5.8-70.76-10.83Z"/>
      <path class="d" d="M639.12,240.11c0,4.64,1.93,8.89,5.8,10.82v.39h-64.96v-.39c3.87-1.93,5.8-6.18,5.8-10.82V103.62c0-16.63-8.5-27.45-25.91-26.68-10.82.77-20.49,5.8-27.45,14.31v148.86c0,4.64,1.93,8.89,5.8,10.82v.39h-64.96v-.39c3.87-1.93,5.8-6.18,5.8-10.82V31.7c0-5.8-2.71-9.66-6.19-11.98v-.39L532.41,0v86.22c10.44-14.31,31.32-30.54,58.77-30.54,31.7,0,47.94,18.95,47.94,51.81v132.62Z"/>
      <path class="d" d="M811.18,221.16c0,6.57,1.16,23.97,15.08,29.77v.39h-67.66v-20.88c-13.92,16.63-29,23.2-47.56,23.2-33.64,0-50.65-18.17-50.65-45.62,0-23.97,17.4-43.31,38.28-61.48,10.83-9.67,22.81-19.33,34.8-29.39,16.24-13.53,22.81-18.95,22.81-28.61,0-12.76-13.15-18.17-29-18.17s-31.7,4.64-44.46,15.08l-1.55-.39c13.92-14.69,33.25-29.39,69.98-29.39,39.44,0,59.93,18.56,59.93,56.06v109.42ZM757.82,100.92l-13.53,22.81c-11.99,20.49-27.07,49.11-29,71.53-1.93,20.88,5.03,41.76,22.81,41.76,7.73,0,15.47-4.64,20.49-13.53l-.77-122.57Z"/>
      <path class="d" d="M1013.78,151.57c0,69.6-35.57,102.85-71.14,102.85-17.01,0-32.87-7.34-41.37-18.56v52.2c0,5.41,3.09,8.51,6.18,10.83v.39h-65.73v-.39c3.48-2.32,6.19-5.41,6.19-10.44V82.74c0-6.19-2.32-10.05-6.19-12.37v-.39l59.54-16.24v20.49c8.89-11.99,22.81-20.49,41.76-20.49,37.12,0,70.76,37.12,70.76,97.82ZM958.49,154.66c0-53.74-17.79-83.9-37.12-83.9-8.51,0-15.08,2.32-20.11,8.12v150.02c4.64,6.96,11.6,13.15,22.43,13.15,21.27,0,34.8-30.16,34.8-87.38Z"/>
      <path class="d" d="M1181.2,187.91c-8.5,40.98-29,65.73-67.66,65.73-49.49,0-84.29-39.44-84.29-100.53s44.08-97.43,85.06-97.43,62.64,18.56,62.64,54.52h-99.75c-.39,4.25-.39,8.89-.39,13.53,0,55.29,28.23,83.13,58.77,83.13,17.79,0,36.73-8.51,45.24-19.33l.39.39ZM1077.58,106.33h25.13c15.08,0,27.07-5.03,27.07-21.27,0-13.53-6.57-25.52-19.72-25.52-18.17,0-29.39,18.17-32.48,46.78Z"/>
    </g>
  </g>
</svg>