<?xml version="1.0" encoding="UTF-8"?>
<svg id="b" data-name="Layer 2" xmlns="http://www.w3.org/2000/svg" viewBox="0 0 651.69 901.27">
  <defs>
    <style>
      .d {
        fill: #094937;
      }
    </style>
  </defs>
  <g id="c" data-name="Layer 1">
    <path class="d" d="M0,901.27v-2.77c13.87-6.93,22.18-20.8,22.18-37.44V40.21C22.18,23.57,13.87,9.71,0,2.77V0h307.82c162.23,0,300.89,36.05,299.5,177.48-2.77,189.96-255.13,205.21-255.13,363.28,0,127.56,112.31,238.49,299.5,360.51h-284.25c-101.22-108.15-98.45-255.13-36.05-393.79,65.17-145.59,81.81-206.6,87.35-314.75C425.68,61.01,348.03,15.25,226.01,15.25h-12.48v845.81c0,16.64,8.32,30.5,22.19,37.44v2.77H0Z"/>
  </g>
</svg>